<svg width="48" height="49" viewBox="0 0 48 49" fill="none" xmlns="http://www.w3.org/2000/svg">
<path fill-rule="evenodd" clip-rule="evenodd" d="M9.10847 11.2846C20.0218 -1.24912 46.4026 2.516 43.1818 28.0213C41.4355 41.8491 31.0272 46.388 18.288 44.0926C2.79935 41.3 1.41983 20.7944 9.10847 11.2846Z" fill="#2D140A"/>
<path fill-rule="evenodd" clip-rule="evenodd" d="M10.1664 12.4789C3.2544 21.0325 4.33344 39.7093 18.7834 42.3118C30.624 44.445 40.1078 40.9765 41.7427 28.0251C44.7696 4.03472 20.2166 0.91472 10.1664 12.4789Z" fill="#FCED8D"/>
<path fill-rule="evenodd" clip-rule="evenodd" d="M14.3117 27.499C15.2784 27.6795 15.8755 28.3102 16.0051 28.8286C16.3594 30.2494 11.6237 29.685 11.327 29.4661C9.97825 28.4677 12.6115 27.1813 14.3117 27.499Z" fill="#EAA5AB"/>
<path fill-rule="evenodd" clip-rule="evenodd" d="M20.2013 28.2152C21.5798 28.6472 23.6189 28.9371 25.0445 28.652C25.8413 28.4936 27.3168 28.1067 27.9974 27.6114C28.0667 27.561 28.1463 27.5267 28.2305 27.511C28.3146 27.4953 28.4013 27.4985 28.484 27.5205C28.5668 27.5425 28.6436 27.5826 28.7089 27.6381C28.7742 27.6935 28.8263 27.7627 28.8614 27.8408C29.5378 29.3922 30.0283 31.0183 30.3226 32.685C30.5731 34.1854 30.6624 36.117 29.7187 37.4091C27.6566 40.2334 22.3862 40.3304 20.3213 37.5051C18.5933 35.1426 18.9686 31.4024 19.4573 28.6645C19.4719 28.5844 19.5034 28.5083 19.5497 28.4412C19.5959 28.3742 19.6559 28.3177 19.7255 28.2755C19.7952 28.2333 19.873 28.2064 19.9539 28.1965C20.0347 28.1866 20.1168 28.1939 20.1946 28.2181L20.2013 28.2152Z" fill="#2D140A"/>
<path fill-rule="evenodd" clip-rule="evenodd" d="M20.0294 28.7634C20.0294 28.7634 22.9094 29.6638 25.1568 29.2155C27.4042 28.7672 28.3392 28.0731 28.3392 28.0731C28.3392 28.0731 31.1597 34.4658 29.2579 37.0702C27.3562 39.6747 22.5542 39.5826 20.7878 37.1662C19.2595 35.0715 19.5062 31.6722 20.0294 28.7634Z" fill="#EE4861"/>
<path fill-rule="evenodd" clip-rule="evenodd" d="M12.2774 27.4107C12.2867 27.377 12.3028 27.3454 12.3245 27.318C12.3463 27.2905 12.3733 27.2677 12.4041 27.2509C12.4348 27.2342 12.4686 27.2237 12.5035 27.2203C12.5383 27.2168 12.5735 27.2204 12.607 27.2309C12.6404 27.2413 12.6714 27.2584 12.6981 27.281C12.7248 27.3037 12.7467 27.3315 12.7624 27.3628C12.7782 27.3941 12.7874 27.4282 12.7897 27.4632C12.792 27.4981 12.7872 27.5332 12.7757 27.5662L12.288 29.1282C12.2674 29.1944 12.2213 29.2497 12.1599 29.2819C12.0985 29.3141 12.0268 29.3206 11.9606 29.3C11.8944 29.2794 11.8391 29.2333 11.8069 29.1719C11.7747 29.1105 11.7682 29.0388 11.7888 28.9726L12.2774 27.4107Z" fill="#2D140A"/>
<path fill-rule="evenodd" clip-rule="evenodd" d="M13.8758 27.3099C13.8898 27.2784 13.9098 27.2499 13.9347 27.2261C13.9596 27.2024 13.989 27.1837 14.0211 27.1713C14.0533 27.1588 14.0875 27.1529 14.122 27.1537C14.1564 27.1545 14.1904 27.1621 14.2219 27.176C14.2534 27.1899 14.2819 27.2099 14.3057 27.2349C14.3295 27.2598 14.3481 27.2892 14.3606 27.3213C14.373 27.3534 14.379 27.3877 14.3782 27.4222C14.3774 27.4566 14.3698 27.4906 14.3558 27.5221L13.5446 29.3259C13.5165 29.3896 13.4642 29.4394 13.3993 29.4645C13.3344 29.4897 13.2622 29.488 13.1986 29.4598C13.1349 29.4317 13.085 29.3794 13.0599 29.3145C13.0348 29.2496 13.0365 29.1774 13.0646 29.1138L13.8758 27.3099Z" fill="#2D140A"/>
<path fill-rule="evenodd" clip-rule="evenodd" d="M36.2515 27.476C37.2336 27.6594 37.8394 28.2987 37.9709 28.8258C38.3299 30.2658 33.5242 29.6955 33.2227 29.4728C31.8538 28.459 34.5254 27.1534 36.2515 27.476Z" fill="#EAA5AB"/>
<path fill-rule="evenodd" clip-rule="evenodd" d="M34.56 27.4107C34.5806 27.3445 34.6267 27.2892 34.6881 27.257C34.7495 27.2248 34.8212 27.2183 34.8874 27.2389C34.9536 27.2595 35.0088 27.3056 35.0411 27.367C35.0733 27.4284 35.0798 27.5 35.0592 27.5662L34.5677 29.1282C34.5575 29.1609 34.5409 29.1914 34.5189 29.2178C34.4969 29.2441 34.47 29.2659 34.4396 29.2819C34.4092 29.2978 34.3759 29.3077 34.3417 29.3108C34.3076 29.3139 34.2731 29.3102 34.2403 29.3C34.2075 29.2898 34.1771 29.2732 34.1507 29.2512C34.1243 29.2293 34.1025 29.2023 34.0866 29.1719C34.0706 29.1415 34.0608 29.1083 34.0577 29.0741C34.0546 29.0399 34.0583 29.0054 34.0685 28.9726L34.56 27.4107Z" fill="#2D140A"/>
<path fill-rule="evenodd" clip-rule="evenodd" d="M36.1632 27.3099C36.1771 27.2787 36.1971 27.2506 36.2219 27.2271C36.2467 27.2036 36.2759 27.1852 36.3078 27.173C36.3397 27.1608 36.3737 27.155 36.4079 27.1559C36.442 27.1568 36.4757 27.1645 36.5069 27.1784C36.5381 27.1923 36.5662 27.2123 36.5897 27.2371C36.6132 27.2619 36.6316 27.2911 36.6438 27.323C36.656 27.3549 36.6618 27.3889 36.6609 27.4231C36.66 27.4572 36.6523 27.4909 36.6384 27.5221L35.8282 29.3259C35.8142 29.3574 35.7942 29.3859 35.7693 29.4097C35.7444 29.4335 35.715 29.4521 35.6829 29.4646C35.6507 29.477 35.6164 29.483 35.582 29.4822C35.5475 29.4814 35.5136 29.4738 35.4821 29.4598C35.4506 29.4459 35.4221 29.4259 35.3983 29.401C35.3745 29.376 35.3559 29.3467 35.3434 29.3145C35.331 29.2824 35.325 29.2481 35.3258 29.2137C35.3266 29.1792 35.3342 29.1453 35.3482 29.1138L36.1632 27.3099Z" fill="#2D140A"/>
<path fill-rule="evenodd" clip-rule="evenodd" d="M16.3718 19.0011C17.9242 19.0453 18.5894 20.2741 18.5501 22.1845C18.5107 24.0949 17.9741 25.651 16.1376 25.6347C14.3011 25.6184 13.7875 23.8578 13.824 21.9474C13.8605 20.037 14.8186 18.956 16.3718 19.0011Z" fill="#2D140A"/>
<path fill-rule="evenodd" clip-rule="evenodd" d="M17.4298 20.0955C17.6947 20.0734 17.9203 20.3586 17.9357 20.733C17.951 21.1074 17.7494 21.427 17.4854 21.4491C17.2214 21.4712 16.9949 21.1861 16.9795 20.8126C16.9642 20.4392 17.1658 20.1176 17.4298 20.0955Z" fill="#FCED8D"/>
<path fill-rule="evenodd" clip-rule="evenodd" d="M30.4925 19.0011C32.0448 19.0453 32.7101 20.2741 32.6707 22.1845C32.6314 24.0949 32.0947 25.651 30.2582 25.6347C28.4218 25.6184 27.9082 23.8578 27.9466 21.9474C27.985 20.037 28.9392 18.956 30.4925 19.0011Z" fill="#2D140A"/>
<path fill-rule="evenodd" clip-rule="evenodd" d="M31.5504 20.0955C31.8154 20.0734 32.041 20.3586 32.0563 20.733C32.0717 21.1074 31.8701 21.427 31.6061 21.4491C31.3421 21.4712 31.1155 21.1861 31.1002 20.8126C31.0848 20.4392 31.2864 20.1176 31.5504 20.0955Z" fill="#FCED8D"/>
<path fill-rule="evenodd" clip-rule="evenodd" d="M25.4976 37.6107C25.6128 36.6507 25.968 36.6661 26.6323 35.636C27.0269 35.0254 27.0422 34.1787 25.9728 33.8187C25.686 33.7262 25.3774 33.7266 25.0909 33.8199C24.8044 33.9131 24.5546 34.0945 24.3773 34.3381C24.1958 33.9176 23.8339 33.7467 23.3568 33.7189C22.5792 33.6728 21.9168 34.508 22.0762 35.2606C22.3085 36.3349 23.4442 37.4437 25.4976 37.6107Z" fill="#EAA5AB"/>
</svg>
